#!OML:ASF H:\Terrain\Patient Classification 1\PLAYGROUND\JustinFriday\JustinFriday.ASF
:FULLY-SPECIFIED
:DEGREES
643
root -5.17635 25.0127 10.7447 98.3564 -85.9098 -133.536
lowerback 28.8196 1.09559 0.893315
upperback 5.34502 1.52036 3.23771
thorax -9.98222 0.49937 2.63019
lowerneck 11.4999 1.55773 -3.59404
upperneck 2.27607 1.50909 1.76128
head -1.27785 0.636623 1.10321
rclavicle -1.51076e-014 -9.93923e-015
rhumerus -20.0769 24.6156 -84.337
rradius 137.2
rwrist -329.353
rhand -34.7803 0.161041
rfingers 7.12502
rthumb -7.93269 -29.6701
lclavicle -1.51076e-014 -9.93923e-015
lhumerus -26.65 -30.2559 95.6961
lradius 133.695
lwrist -47.5607
lhand -31.3355 -18.599
lfingers 7.12502
lthumb -4.60713 11.3309
rfemur -49.9636 -9.90202 25.0235
rtibia 102.285
rfoot -4.83186 -3.97975
rtoes -0.248778
lfemur -42.4493 15.9742 -10.4568
ltibia 99.5804
lfoot -9.65834 -11.087
ltoes -1.54363
644
root -5.10186 25.0198 10.7493 98.9768 -85.9878 -133.257
lowerback 28.6879 1.08836 0.952871
upperback 5.21128 1.54496 3.23635
thorax -10.0686 0.516609 2.58521
lowerneck 11.2467 1.57252 -3.9398
upperneck 2.20758 1.50245 1.81961
head -1.26141 0.63421 1.18286
rclavicle -6.95746e-016 9.93923e-015
rhumerus -19.9914 24.9621 -84.2851
rradius 137.46
rwrist -329.124
rhand -35.0724 0.00766627
rfingers 7.12502
rthumb -8.21469 -29.8126
lclavicle -6.95746e-016 9.93923e-015
lhumerus -26.6505 -30.1875 95.9255
lradius 133.946
lwrist -47.5594
lhand -31.6087 -18.8535
lfingers 7.12502
lthumb -4.87086 11.0705
rfemur -49.9693 -10.4629 24.8188
rtibia 102.729
rfoot -4.72254 -3.51747
rtoes 1.26914
lfemur -42.1355 16.0594 -10.297
ltibia 99.9578
lfoot -9.30524 -11.5449
ltoes 0.441968
645
root -5.02957 25.03 10.7469 98.9767 -86.2535 -132.454
lowerback 28.6038 1.05863 0.593426
upperback 5.0881 1.41393 3.23767
thorax -10.1716 0.473571 2.84369
lowerneck 11.8977 1.63654 -5.75251
upperneck 1.18456 1.37833 3.31694
head -1.75972 0.541206 2.00959
rclavicle -7.7526e-015 7.95139e-015
rhumerus -19.3875 25.2593 -83.4623
rradius 137.871
rwrist -329.378
rhand -34.8265 -0.10968
rfingers 7.12502
rthumb -7.97731 -29.9391
lclavicle -7.7526e-015 7.95139e-015
lhumerus -26.6692 -29.8669 96.0369
lradius 134.298
lwrist -47.6408
lhand -31.3768 -19.4163
lfingers 7.12502
lthumb -4.64698 10.5128
rfemur -49.81 -10.7771 24.4108
rtibia 103.144
rfoot -4.57505 -3.29264
rtoes 1.43419
lfemur -41.5844 15.9598 -10.344
ltibia 100.223
lfoot -9.2595 -11.7542
ltoes 0.163072
646
root -4.96326 25.0317 10.7397 100.834 -86.3662 -133.469
lowerback 28.3811 1.11922 0.302973
upperback 5.01926 1.41357 3.22449
thorax -10.1454 0.488325 2.99619
lowerneck 12.26 1.83479 -5.71244
upperneck 0.497309 1.64581 3.30083
head -2.06681 0.683611 1.98828
rclavicle 1.98785e-016 1.39149e-014
rhumerus -18.7985 25.1545 -82.9278
rradius 138.171
rwrist -329.589
rhand -34.0785 0.520964
rfingers 7.12502
rthumb -7.25539 -29.3347
lclavicle 1.98785e-016 1.39149e-014
lhumerus -26.5335 -29.7205 95.9703
lradius 134.6
lwrist -47.8422
lhand -31.3583 -19.7747
lfingers 7.12502
lthumb -4.62915 10.1547
rfemur -49.7087 -10.6641 24.2859
rtibia 103.561
rfoot -4.47041 -3.5634
rtoes -0.364802
lfemur -41.0807 16.1017 -10.1467
ltibia 100.528
lfoot -9.32052 -11.9323
ltoes -1.64366
647
root -4.89732 25.0275 10.7423 101.506 -86.2519 -133.266
lowerback 28.2413 1.15229 0.445327
upperback 4.87678 1.51857 3.25086
thorax -10.2401 0.5413 2.90548
lowerneck 12.2458 1.83313 -5.44484
upperneck 0.335129 1.68238 3.13284
head -2.1125 0.709904 1.88228
rclavicle -9.14409e-015 1.51076e-014
rhumerus -18.8412 25.4926 -83.3393
rradius 138.246
rwrist -329.441
rhand -34.291 1.05566
rfingers 7.12502
rthumb -7.46046 -28.7928
lclavicle -9.14409e-015 1.51076e-014
lhumerus -26.4261 -29.9192 95.9579
lradius 134.829
lwrist -47.8786
lhand -31.5659 -19.6384
lfingers 7.12502
lthumb -4.82954 10.2865
rfemur -49.6659 -10.8507 24.3534
rtibia 104.008
rfoot -4.52208 -3.48529
rtoes 0.377607
lfemur -40.6687 16.238 -9.686
ltibia 100.901
lfoot -9.24068 -12.0643
ltoes -2.05436
648
root -4.83162 25.0288 10.7437 101.649 -85.8937 -132.552
lowerback 28.1546 1.11118 0.864053
upperback 4.69774 1.61216 3.28601
thorax -10.3944 0.579196 2.66952
lowerneck 12.0753 1.9092 -5.10039
upperneck 0.282929 1.83433 2.83203
head -2.09372 0.797348 1.71107
rclavicle 1.49089e-015 1.90833e-014
rhumerus -19.0772 25.8246 -83.9617
rradius 138.42
rwrist -329.159
rhand -34.7973 0.831239
rfingers 7.12502
rthumb -7.94918 -28.9993
lclavicle 1.49089e-015 1.90833e-014
lhumerus -26.2546 -30.172 95.7737
lradius 134.997
lwrist -47.6761
lhand -31.7569 -19.3264
lfingers 7.12502
lthumb -5.01405 10.5943
rfemur -49.4413 -11.0374 24.6007
rtibia 104.369
rfoot -4.56278 -3.22768
rtoes 3.13384
lfemur -40.154 16.5162 -8.92265
ltibia 101.259
lfoot -9.1554 -12.3211
ltoes -2.03763
